<?xml version="1.0" encoding="UTF-8"?>
<svg width="900" height="500" xmlns="http://www.w3.org/2000/svg">
    <path d="M250,500
    A250,250 0 0 1 0,250
    L40,250
    A210,210 0 0 0 250,460
    Z"
          fill="rgb(0, 250, 255)"/>

    <path d="M250,450
    A200,200 0 0 1 250,50
    L250,90
    A160,160 0 0 0 250,410
    Z" fill="rgb(0, 200, 255)"/>

    <path d="M250,400
    A150,150 0 1 1 400,250
    L360,250
    A110,110 0 1 0 250,360
    Z" fill="rgb(0, 150, 255)"/>

    <circle cx="250" cy="250" r="100"  fill="rgb(0, 100, 255)" />

    <text x="420" y="275" font-family="Verdana" font-size="80" fill="rgb(0, 100, 255)">
        StormMind
    </text>

</svg>